<svg width="40" height="40" viewBox="0 0 40 40" fill="none" xmlns="http://www.w3.org/2000/svg">
<path fill-rule="evenodd" clip-rule="evenodd" d="M27.4816 20.4728L20.2311 13.2223C19.0595 12.051 17.1599 12.0508 15.9884 13.2223L5.85348 23.3573C5.46295 23.7478 4.82979 23.7478 4.43926 23.3573C4.04897 22.9667 4.04881 22.3335 4.43926 21.9431L14.5742 11.8081C16.5268 9.85556 19.6927 9.85571 21.6453 11.8081L28.8959 19.0587V13.2223L28.9 13.1201C28.9512 12.6158 29.378 12.2224 29.8958 12.2224C30.4134 12.2227 30.839 12.616 30.8902 13.1201L30.8957 13.2223L30.895 21.4575C30.8988 21.7183 30.8012 21.9803 30.6022 22.1792C30.407 22.3743 30.1511 22.4719 29.8953 22.472L29.8951 22.472H21.646C21.0938 22.472 20.6462 22.0243 20.6461 21.4721C20.6461 20.9198 21.0937 20.4722 21.646 20.4722L27.4816 20.4728Z" fill="#FAFAFA"/>
</svg>
