<svg width="40" height="40" viewBox="0 0 40 40" fill="none" xmlns="http://www.w3.org/2000/svg">
<path d="M25.22 3.45396C25.499 3.44256 25.7706 3.54862 25.9681 3.74595L35.7181 13.4959L35.7874 13.5731C35.94 13.7612 36.0201 13.9996 36.0101 14.244C36 14.4882 35.901 14.7194 35.7337 14.8944L35.6575 14.9657L26.8782 22.4129L27.4769 28.1991C27.5078 28.4986 27.4027 28.7967 27.1898 29.0096L24.3616 31.8377C24.1742 32.0252 23.9196 32.1306 23.6546 32.1307C23.3895 32.1307 23.1351 32.0251 22.9476 31.8377L16.262 25.1522L5.70735 35.7079L5.63117 35.7762C5.2384 36.0966 4.6594 36.074 4.29328 35.7079C3.92717 35.3417 3.90457 34.7627 4.22492 34.37L4.29328 34.2938L14.848 23.7381L7.62629 16.5174C7.23577 16.1269 7.23577 15.4929 7.62629 15.1024L10.4544 12.2743C10.6673 12.0613 10.9655 11.9552 11.265 11.9862L17.0511 12.5848L24.4984 3.80747C24.679 3.59448 24.941 3.46549 25.22 3.45396ZM18.2347 14.2821C18.0213 14.5334 17.6974 14.6636 17.3695 14.6297L11.5325 14.0252L9.74739 15.8104L23.6546 29.7167L25.4398 27.9315L24.8343 22.0956C24.8003 21.7673 24.9313 21.4428 25.1829 21.2293L33.5355 14.1424L25.3216 5.92857L18.2347 14.2821Z" fill="#FAFAFA"/>
</svg>
