<svg width="40" height="40" viewBox="0 0 40 40" fill="none" xmlns="http://www.w3.org/2000/svg">
<path d="M32.8211 2.33594C34.4061 2.4163 35.6666 3.72711 35.6668 5.33203V23.5645L38.576 33.8486C39.1176 35.7633 37.679 37.665 35.6893 37.665H4.31135C2.32151 37.665 0.883037 35.7633 1.42463 33.8486L4.33381 23.5615V5.33203C4.33398 3.67533 5.67706 2.33203 7.33381 2.33203H32.6668L32.8211 2.33594ZM3.34846 34.3936C3.16825 35.0317 3.64821 35.665 4.31135 35.665H35.6893C36.3524 35.665 36.8315 35.0317 36.6512 34.3936L33.911 24.7021H6.08967L3.34846 34.3936ZM21.6668 30.666C22.2189 30.6663 22.6668 31.1139 22.6668 31.666C22.6666 32.218 22.2188 32.6658 21.6668 32.666H18.3338C17.7816 32.666 17.334 32.2182 17.3338 31.666C17.3338 31.1137 17.7815 30.666 18.3338 30.666H21.6668ZM7.33381 4.33203C6.78163 4.33203 6.33398 4.7799 6.33381 5.33203V22.7021H33.6668V5.33203C33.6666 4.81454 33.2733 4.38828 32.7694 4.33691L32.6668 4.33203H7.33381Z" fill="#FAFAFA"/>
</svg>
